<svg width="180" height="135" viewBox="0 0 180 135" fill="none" xmlns="http://www.w3.org/2000/svg">
<path d="M131.318 120.072L165.444 133.004L164.936 134.386L131.48 121.714L65.906 111.824C63.334 111.514 59.882 109.11 56.35 105.138C55.65 104.488 54.962 103.67 54.312 102.684C35.88 79.3835 35.896 43.0576 54.312 19.7956C54.962 18.8036 55.65 17.9796 56.35 17.3356C59.882 13.3636 63.334 10.9596 65.906 10.6496L132.522 0.597553C147.55 -0.902447 160.296 26.2156 160.296 61.2336C160.45 47.0876 157.138 29.9896 151.428 19.2996C145.53 8.09555 138.054 1.65555 128.934 2.46355C123.146 3.08955 117.86 6.93755 113.48 13.0296L100.678 14.1575L100.938 17.0956L111.41 16.1715C107.396 22.9795 104.986 29.9676 103.162 38.2816L91.612 38.7595L91.73 41.7035L102.568 41.2636C100.22 54.2296 100.222 68.2495 102.568 81.2135L91.73 80.7616L91.612 83.7115L103.156 84.1815C104.988 92.4955 107.39 99.4895 111.41 106.298L100.938 105.38L100.678 108.318L113.486 109.446C118.504 116.28 124.216 120.306 131.318 120.072ZM150.726 107.9C152.79 103.984 154.606 97.7115 156.056 91.5335C154.254 97.3855 152.196 102.26 149.19 107.094L143.284 105.712C152.708 90.6695 155.346 68.5016 153.478 49.9276C151.666 33.9816 144.996 6.14755 128.064 7.47955C121.532 8.48355 117.176 11.3716 112.554 20.1636C115.802 16.3336 119.55 13.9676 123.596 13.6136C141.138 12.6416 149.824 43.4556 148.308 67.0536C147.354 83.0416 142.484 96.3455 135.772 103.416L132.766 104.11L132.11 96.8956L136.038 95.1415L137.978 64.7835L142.514 65.0695L143.35 52.7076L131.18 52.0996L130.406 64.3015L135.034 64.5936L133.212 93.1735L128.964 95.0615L130.142 107.63C128.048 108.616 125.854 109.05 123.598 108.85C119.552 108.49 115.796 106.13 112.556 102.3C117.742 111.8 123.58 117.186 131.048 117.128L165.444 133.004L180 123.356L150.726 107.9ZM136.564 64.6975L137.976 64.7896L137.978 64.7835L136.564 64.6975ZM136.564 64.6975L137.976 64.7896L137.978 64.7835L136.564 64.6975ZM39.616 20.9296L22.308 11.6116L33.876 25.6576L39.616 20.9296ZM42 96.5956L36.354 91.7555L21.482 109.106L42 96.5956ZM29.744 55.8155L0 59.5336L29.744 63.2516V55.8155ZM130.056 47.0515L130.406 43.9736C119.206 44.8896 117.584 65.5135 128.478 68.3475C119.408 65.4855 120.926 48.0075 130.056 47.0515Z" fill="white"/>
</svg>
