<svg width="1923" height="466" viewBox="0 0 1923 466" fill="none" xmlns="http://www.w3.org/2000/svg">
<path d="M516.793 218.419L516.793 0.000199791L612.829 0.000210477L612.829 94.4058L639.506 94.4058C647.266 94.4058 654.057 93.9204 660.12 93.1923C666.183 92.2216 672.003 90.7655 677.581 88.5813C683.159 86.3971 688.979 83.7275 695.042 80.0872C701.105 76.4469 707.895 72.3212 715.656 66.9821L815.572 0.000233036L936.83 0.000246529L775.557 107.268L938.527 218.419L816.057 218.419L714.201 149.496C705.713 143.671 698.437 139.06 692.374 135.663C686.311 132.265 680.734 129.595 675.398 127.897C670.063 125.955 664.728 124.984 659.15 124.499C653.572 124.014 647.024 123.771 639.263 123.771L612.587 123.771L612.587 218.662L516.551 218.662L516.793 218.419Z" fill="url(#paint0_radial_482_76)"/>
<path d="M944.584 218.421L944.584 0.00168771L1040.62 0.0016984L1040.62 218.421L944.584 218.421Z" fill="url(#paint1_radial_482_76)"/>
<path d="M1069.73 218.421L1069.73 0.00170164L1165.77 0.00171232L1165.77 94.4073L1192.44 94.4073C1200.2 94.4073 1206.99 93.9219 1213.06 93.1938C1219.12 92.2231 1224.94 90.767 1230.52 88.5828C1236.1 86.3986 1241.92 83.729 1247.98 80.0887C1254.04 76.4484 1260.83 72.3227 1268.59 66.9836L1368.51 0.00173488L1489.77 0.00174837L1328.49 107.27L1491.46 218.421L1368.99 218.421L1267.14 149.497C1258.65 143.673 1251.37 139.062 1245.31 135.664C1239.25 132.267 1233.67 129.597 1228.34 127.898C1223 125.957 1217.67 124.986 1212.09 124.501C1206.51 124.015 1199.96 123.772 1192.2 123.772L1165.52 123.772L1165.52 218.663L1069.49 218.663L1069.73 218.421Z" fill="url(#paint2_radial_482_76)"/>
<path d="M770.943 242.652C801.985 242.652 828.419 244.594 850.245 248.477C872.072 252.36 889.775 258.184 903.113 265.95C916.694 273.716 926.395 283.666 932.458 295.558C938.521 307.45 941.673 321.526 941.673 337.3L941.673 366.423C941.673 382.44 938.763 396.273 933.185 408.165C927.365 420.057 917.907 430.007 904.568 437.773C891.23 445.539 873.769 451.364 851.7 455.247C829.874 459.13 802.712 461.071 770.7 461.071L516.787 461.071L516.787 242.652L770.943 242.652ZM770.943 271.775L612.823 271.775L612.823 431.948L770.943 431.948C785.494 431.948 797.377 430.978 806.35 429.036C815.323 427.095 822.356 423.697 827.206 419.086C832.056 414.232 835.452 407.922 837.149 399.914C838.847 391.905 839.817 381.955 839.817 369.82L839.817 333.417C839.817 321.283 838.847 311.333 837.149 303.324C835.452 295.315 832.056 289.005 827.206 284.394C822.356 279.783 815.323 276.386 806.35 274.444C797.377 272.503 785.494 271.532 770.943 271.532L770.943 271.775Z" fill="url(#paint3_radial_482_76)"/>
<path d="M1053.73 271.775L1053.73 461.071L957.694 461.071L957.694 242.652L1223.73 242.652C1249.44 242.652 1270.78 243.623 1288.24 245.322C1305.7 247.263 1319.77 250.175 1330.2 254.544C1340.63 258.912 1348.39 264.737 1352.99 272.26C1357.6 279.783 1359.78 289.005 1359.78 300.169L1359.78 310.605C1359.78 319.099 1358.09 326.622 1354.45 333.417C1351.05 339.97 1345.23 345.552 1337.23 349.92C1329.23 354.288 1318.56 357.686 1304.98 359.87C1291.4 362.054 1274.9 363.268 1255.26 363.268L1224.95 363.268C1222.52 363.268 1220.82 363.753 1219.37 364.481C1217.91 365.452 1217.43 366.666 1217.43 368.607C1217.43 370.306 1217.91 371.762 1219.13 372.733C1220.34 373.703 1221.79 374.917 1223.73 376.13L1361.48 460.586L1233.68 460.586L1103.2 373.218C1095.93 368.364 1091.08 364.481 1088.17 361.326C1085.26 358.414 1084.04 354.774 1084.04 350.891C1084.04 346.522 1085.98 343.367 1089.62 341.183C1093.26 338.999 1098.35 338.028 1105.14 338.028L1210.15 338.028C1231.25 338.028 1245.56 336.087 1252.59 332.447C1259.87 328.806 1263.26 321.283 1263.26 309.634L1263.26 298.956C1263.26 293.617 1262.54 289.248 1261.08 285.608C1259.63 281.967 1256.96 279.055 1253.08 277.114C1249.2 274.93 1243.62 273.473 1236.59 272.503C1229.31 271.532 1220.1 271.047 1208.94 271.047L1053.25 271.047L1053.73 271.775Z" fill="url(#paint4_radial_482_76)"/>
<path d="M1375.05 461.129L1375.05 285.423C1375.05 270.376 1383.78 258.727 1400.99 250.718C1418.21 242.71 1444.65 238.827 1480.54 238.827C1510.37 238.827 1535.11 241.982 1554.26 248.049C1573.42 254.116 1585.55 264.066 1590.16 277.657L1639.63 421.328C1640.36 423.755 1641.81 425.696 1643.75 427.395C1645.69 429.094 1648.6 429.822 1652.24 429.822C1656.12 429.822 1659.03 428.851 1660.73 427.153C1662.43 425.211 1663.64 423.27 1664.61 420.843L1714.32 278.142C1719.17 264.066 1730.33 254.116 1747.55 248.049C1764.77 241.982 1788.78 238.827 1819.82 238.827C1853.04 238.827 1878.51 242.71 1895.97 250.719C1913.67 258.485 1922.4 270.134 1922.4 285.423L1922.4 461.129L1832.19 461.129L1832.19 286.394C1832.19 281.054 1830.97 276.929 1828.79 274.502C1826.61 272.075 1822.73 270.862 1816.91 270.862C1811.09 270.862 1807.69 272.075 1805.51 274.259C1803.33 276.443 1801.39 280.084 1799.45 284.937L1747.55 424.968C1742.94 437.345 1732.03 447.053 1714.57 454.334C1697.35 461.371 1675.28 465.012 1648.6 465.012C1621.93 465.012 1600.58 461.614 1584.09 454.576C1567.6 447.538 1556.93 438.073 1552.32 425.939L1499.94 284.695C1498.49 281.054 1496.79 277.9 1494.36 274.987C1491.94 272.318 1487.81 270.862 1482.24 270.862C1476.66 270.862 1472.54 272.075 1469.63 274.259C1466.72 276.686 1465.26 280.569 1465.26 285.908L1465.26 460.886L1375.05 460.886L1375.05 461.129Z" fill="url(#paint5_radial_482_76)"/>
<path d="M433.04 317.076C433.575 318.645 434.137 320.215 434.645 321.785C438.701 334.397 440.958 347.441 443.697 360.38C445.001 366.555 446.76 372.652 448.456 378.735C450.816 387.265 453.085 395.821 455.811 404.233C457.376 409.061 459.541 413.745 461.811 418.298C462.285 419.248 462.836 420.122 463.447 420.921L463.447 463.447L-5.1569e-05 463.447L-4.08618e-05 367.222C16.9957 367.221 33.9916 367.222 50.9873 367.222C75.6089 367.222 100.231 367.183 124.852 367.235C132.39 367.249 139.927 367.524 147.464 367.641C155.759 367.759 164.054 368.111 172.335 367.85C181.907 367.562 191.479 366.726 201.038 366.138C205.837 365.85 210.559 366.476 215.28 367.288C220.118 368.112 224.957 369.028 229.835 369.577C238.376 370.532 246.709 369.434 254.846 366.647C256.945 365.928 259.23 365.795 261.381 365.206C262.685 364.853 264.067 364.357 265.123 363.546C267.835 361.44 271.017 360.695 273.56 362.958C276.168 365.274 279.064 367.026 282.141 368.622C284.136 369.656 285.884 371.265 287.514 372.848C291.035 376.249 294.57 379.6 298.964 381.837C307.35 386.102 315.684 385.158 322.661 378.879C325.595 376.236 328.098 373.083 330.719 370.1C332.01 368.622 333.172 367.026 334.346 365.443C334.933 364.658 335.48 363.834 335.91 362.971C340.018 354.585 344.506 346.42 350.022 338.858C350.126 338.701 350.256 338.57 350.516 338.244C351.559 340.062 352.616 341.749 353.542 343.515C356.711 349.546 359.019 355.907 360.923 362.461C362.215 366.896 364.081 371.174 365.776 375.491C368.671 382.909 371.513 390.353 374.604 397.692C376.377 401.931 378.556 406.028 381.816 409.351C388.428 416.075 398.599 415.315 404.181 407.675C407.924 402.547 410.416 396.777 412.189 390.719C414.419 383.131 416.127 375.372 418.657 367.889C422.687 355.957 423.953 343.359 427.878 331.427C429.456 326.639 431.033 321.851 432.611 317.05C432.754 317.05 432.897 317.062 433.04 317.076Z" fill="url(#paint6_radial_482_76)"/>
<path d="M276.292 129.031C276.475 129.539 276.695 130.034 276.839 130.555C280.539 143.858 282.768 157.447 284.501 171.115C285.009 175.036 285.556 178.959 286.221 182.854C286.651 185.382 287.446 187.859 287.836 190.386C289.947 204.171 291.798 218.009 294.143 231.755C295.199 237.892 296.919 243.951 298.847 249.892C300.724 255.677 305.296 258.66 310.964 258.439C316.762 258.204 320.684 254.973 322.599 249.788C325.179 242.804 327.485 235.677 329.4 228.471C332.188 218.009 334.561 207.429 337.062 196.888C339.004 188.758 340.906 180.64 342.209 172.366C343.981 161.174 346.275 150.06 348.398 138.92C348.75 137.096 349.324 135.325 349.793 133.527C350.261 134.021 350.469 134.492 350.6 134.973C352.658 142.725 354.926 150.439 356.698 158.257C358.444 165.944 359.576 173.762 361.178 181.488C363.172 191.13 365.362 200.732 367.472 210.36C369.518 219.663 371.734 228.915 375.03 237.88C377.298 244.016 381.246 248.003 388.164 248.276C392.294 248.445 395.851 247.102 398.496 243.949C401.831 239.976 403.604 235.129 405.037 230.269C407.955 220.38 410.588 210.399 413.285 200.445C415.213 193.37 417.297 186.333 418.873 179.193C421.883 165.565 424.529 151.859 428.45 138.439C429.102 136.198 429.818 133.97 430.495 131.729C430.977 132.224 431.161 132.691 431.305 133.16C435.2 146.072 437.559 159.298 439.136 172.679C439.488 175.74 439.734 178.817 440.32 181.826C441.193 186.269 442.561 190.608 443.304 195.064C445.324 207.13 447.253 219.222 450.693 230.987C452.035 235.599 453.676 240.145 456.659 244.028C458.578 246.533 460.83 248.285 463.447 249.07L463.447 365.443C463.011 363.238 462.596 361.028 462.201 358.811C461.158 352.924 459.501 347.125 458.015 341.316C456.02 333.506 454.128 325.658 451.768 317.965C450.007 312.209 447.908 306.504 445.339 301.061C442.861 295.789 438.271 293.237 432.299 293.498C426.887 293.747 423.183 296.678 420.666 301.179C416.897 307.916 414.328 315.192 412.28 322.597C409.529 332.54 407.075 342.548 404.441 352.517C404.18 353.524 403.568 354.453 403.125 355.421C402.877 355.957 402.537 356.495 402.459 357.057C401.22 365.613 399.226 373.999 396.526 382.201C395.262 386.06 393.735 389.829 392.327 393.636L391.947 393.636C390.813 391.164 389.639 388.704 388.557 386.205C384.501 376.864 381.137 367.287 379.102 357.265C378.959 356.546 378.684 355.762 378.228 355.226C375.789 352.465 374.904 348.984 373.599 345.687C371.083 339.303 368.214 333.101 363.793 327.777C357.403 320.097 346.252 319.431 338.91 326.195C334.176 330.551 330.904 335.941 327.839 341.488C325.844 345.099 323.848 348.696 321.8 352.28C321.435 352.908 320.823 353.393 320.38 353.982C319.728 354.819 318.918 355.618 318.54 356.573C316.715 361.073 313.819 364.736 310.155 367.863C309.307 368.582 308.588 368.845 307.597 368.034C304.519 365.535 301.313 363.178 298.314 360.588C297.219 359.646 296.617 358.131 295.704 356.953C295.026 356.09 294.309 355.145 293.397 354.596C290.762 353.013 288.01 351.628 285.323 350.124C275.895 344.864 266.297 344.548 256.542 349.114C250.674 351.861 244.491 353.381 238.036 353.839C230.837 354.349 223.756 353.38 216.688 352.202C208.485 350.842 200.218 350.737 191.924 351.391C187.073 351.77 182.221 351.98 177.356 352.124C168.932 352.373 160.507 352.595 152.083 352.686C141.532 352.804 130.982 352.806 120.445 352.832C118.293 352.832 116.141 352.725 113.99 352.699C107.234 352.647 100.49 352.609 93.7348 352.556C88.0623 352.517 82.3889 352.465 76.7295 352.413C71.4351 352.374 66.1399 352.254 60.8455 352.28C52.7863 352.32 44.7263 352.504 36.667 352.543C24.4434 352.595 12.2197 352.647 -3.92405e-05 352.652L-3.00165e-05 269.757C0.000617329 269.75 0.00194014 269.743 0.00257178 269.736C0.836457 260.628 1.69763 251.532 2.53152 242.425C2.60984 241.566 2.8843 241.072 3.83502 240.981C4.98135 240.864 6.14129 240.653 7.27459 240.38C7.69112 240.275 8.27543 239.925 8.36734 239.573C9.64423 234.791 10.9492 230.022 12.0567 225.201C12.643 222.66 12.8886 220.04 13.3056 217.357C13.7354 219.141 14.023 220.861 14.583 222.477C16.0684 226.737 19.5087 228.901 24.1602 228.64C27.7301 228.445 30.5435 225.852 31.4817 221.618C32.4589 217.162 33.3198 212.667 34.1928 208.185C34.4273 206.973 34.4787 205.708 34.6481 204.158C34.7653 204.614 34.8172 204.745 34.8302 204.876C35.8725 213.384 36.811 221.917 37.9706 230.412C38.5178 234.425 39.223 238.464 40.3304 242.347C41.9851 248.158 48.4476 250.503 53.6724 247.454C57.3977 245.278 58.9999 241.71 59.5342 237.71C60.3811 231.339 61.0085 224.927 61.6209 218.517C62.3114 211.234 62.8974 203.937 63.5098 196.641C63.7313 194.035 63.9128 191.416 64.1082 188.81C64.3948 189.122 64.4724 189.436 64.4985 189.749C64.7721 192.628 65.021 195.508 65.2946 198.387C66.0112 206.152 66.7271 213.905 67.4567 221.657C68.3948 231.742 69.2685 241.826 70.3239 251.885C70.7278 255.703 71.7046 259.417 73.9065 262.688C77.529 268.068 87.0015 268.745 90.2848 261.501C90.871 260.238 91.5357 258.961 91.8485 257.619C92.6694 254.088 93.4895 250.53 93.9716 246.934C95.2224 237.735 96.408 228.535 97.3721 219.31C98.2841 210.555 98.9088 201.761 99.5863 192.967C100.394 182.596 101.138 172.224 101.894 161.852C102.155 158.321 102.401 154.776 102.649 151.232L103.08 151.232C103.471 159.662 103.86 168.081 104.29 176.511C104.42 178.856 104.135 181.279 105.36 183.494C105.633 183.989 105.646 184.667 105.685 185.266C106.076 190.66 106.415 196.068 106.819 201.462C107.549 211.182 108.186 220.901 109.124 230.607C110.167 241.422 111.443 252.224 112.746 263.013C113.189 266.7 113.712 270.441 114.716 274.011C116.006 278.622 120.591 281.618 125.399 281.592C129.998 281.566 133.608 278.816 135.054 273.891C135.875 271.077 136.422 268.171 136.865 265.266C138.181 256.745 139.522 248.224 140.578 239.664C141.711 230.452 142.585 221.214 143.497 211.976C144.252 204.328 144.851 196.653 145.633 188.992C145.959 185.839 146.715 182.724 146.975 179.571C147.327 175.298 147.313 170.999 147.613 166.713C148.095 159.833 148.668 152.952 149.281 146.073C149.671 141.669 150.206 137.277 150.675 132.887C150.949 133.382 151.042 133.89 151.094 134.385C151.889 141.2 152.748 148.003 153.451 154.83C154.168 161.735 154.78 168.654 155.275 175.585C155.484 178.542 154.898 181.565 156.383 184.366C156.579 184.718 156.54 185.187 156.579 185.604C157.543 194.933 158.481 204.263 159.485 213.579C160.553 223.455 161.622 233.345 162.794 243.208C163.667 250.596 165.01 257.892 167.576 264.902C168.553 267.585 169.608 270.269 172.109 271.976C173.19 272.706 174.284 273.358 174.167 275.142C174.857 273.227 176.28 273.722 177.505 273.748C181.661 273.826 184.917 272.093 187.04 268.627C188.135 266.83 188.775 264.72 189.335 262.662C190.677 257.672 192.318 252.681 193.035 247.587C196.696 221.672 200.109 195.729 203.575 169.788C205.008 159.065 206.351 148.314 207.758 137.578C208.058 135.285 208.512 133.005 208.89 130.725L209.283 130.725C210.651 140.431 212.044 150.127 213.347 159.833C214.272 166.765 214.69 173.8 216.045 180.64C217.218 186.555 218.076 192.484 218.754 198.465C220.239 211.559 222.222 224.575 225.765 237.278C227.459 243.389 229.295 249.474 231.549 255.39C234.103 262.087 243.758 263.794 248.201 258.465C251.979 253.931 255.132 248.941 256.917 243.234C259.861 233.801 261.244 224.027 262.82 214.307C264.175 205.982 265.217 197.59 266.52 189.252C266.976 186.308 268.044 183.454 268.409 180.497C269.386 172.588 269.908 164.602 271.055 156.719C272.397 147.442 274.208 138.243 275.811 129.018C275.967 129.031 276.136 129.031 276.292 129.031Z" fill="url(#paint7_radial_482_76)"/>
<path d="M463.447 208.672C461.55 199.563 460.141 190.361 459.084 181.095C458.85 179.063 458.939 176.862 458.145 175.064C456.959 172.394 456.582 169.631 456.139 166.83C455.122 160.471 454.015 154.125 452.894 147.779C451.292 138.711 449.27 129.747 445.622 121.225C444.254 118.047 442.874 114.842 440.229 112.483C434.861 107.702 426.64 108.014 421.506 113.043C418.601 115.883 416.75 119.401 415.278 123.088C411.291 133.056 408.672 143.415 406.51 153.891C405.024 161.057 403.772 168.302 400.632 175.012C400.463 175.377 400.398 175.806 400.333 176.222C398.431 188.757 395.513 201.058 391.643 213.123C390.796 215.755 389.883 218.361 388.88 221.371C388.567 220.564 388.399 220.198 388.281 219.807C384.75 208.355 382.261 196.667 380.372 184.85C379.851 181.58 379.46 178.282 378.73 175.064C377.649 170.296 376.06 165.63 375.122 160.835C372.372 146.711 369.323 132.679 364.059 119.232C362.534 115.337 360.958 111.375 358.743 107.857C354.548 101.213 344.646 101.187 340.385 107.727C338.378 110.789 336.515 114.125 335.486 117.604C333.362 124.809 331.643 132.144 330.105 139.493C328.229 148.496 326.77 157.579 325.024 166.609C324.073 171.546 322.288 176.277 321.61 181.306C319.708 195.534 316.515 209.501 312.384 223.247C312.15 224.054 311.89 224.862 311.643 225.669C311.526 225.656 311.393 225.643 311.263 225.643C310.507 221.67 309.596 217.722 309.023 213.735C307.264 201.5 305.701 189.24 303.89 177.005C302.978 170.921 301.57 164.914 300.593 158.829C298.209 144.067 295.758 129.331 291.016 115.09C289.478 110.491 287.837 105.903 285.857 101.486C283.993 97.3167 280.071 95.6365 276.162 95.8189C270.299 96.0926 266.325 99.2843 264.319 104.613C262.821 108.613 261.726 112.797 260.788 116.979C258.912 125.357 257.088 133.761 255.577 142.204C254.131 150.282 253.164 158.439 251.914 166.557C251.119 171.664 249.648 176.641 249.205 181.839C248.072 194.96 246.522 208.028 243.772 220.913C243.277 223.258 242.704 225.606 242.17 227.938C241.779 227.443 241.647 226.999 241.53 226.556C238.742 215.586 237.179 204.407 235.889 193.175C235.055 185.905 234.272 178.622 233.23 171.378C231.497 159.326 229.439 147.325 227.784 135.26C226.117 123.129 224.319 111.05 220.957 99.2455C220.084 96.1966 218.768 93.4076 216.162 91.375C211.081 87.4272 199.913 87.7532 197.19 97.942C193.985 109.916 192.174 122.164 190.389 134.411C189.021 143.779 188.005 153.2 186.676 162.581C186.025 167.206 184.775 171.755 184.254 176.381C183.381 184.12 183.001 191.912 182.18 199.651C181.705 204.081 181.168 208.5 180.614 212.918L178.91 226.062C178.793 226.075 178.688 226.101 178.572 226.101C178.506 225.893 178.415 225.67 178.389 225.448C178.025 222.439 177.607 219.429 177.307 216.42C176.551 208.85 175.796 201.292 175.158 193.709C174.689 187.937 174.454 182.153 173.985 176.394C173.867 174.987 173.074 173.643 172.918 172.236C171.602 160.367 170.506 148.471 169.059 136.615C167.783 126.153 166.169 115.741 164.657 105.305C163.797 99.4157 162.481 93.6547 159.615 88.3518C157.882 85.1338 155.471 82.764 151.744 82.2037C146.376 81.3959 140.486 84.2352 138.91 91.362C136.135 103.87 134.533 116.522 133.269 129.239C131.575 146.36 130.011 163.493 128.448 180.627C127.796 187.728 127.354 194.855 126.767 201.97C126.428 205.956 125.998 209.956 125.607 213.943C124.76 205.617 124.239 197.291 123.679 188.966C123.301 183.246 123.405 177.527 122.388 171.82C121.398 166.244 121.424 160.498 120.838 154.843C119.404 140.876 118.09 126.893 116.292 112.978C115.367 105.877 113.685 98.8552 112.083 91.846C111.053 87.3381 107.718 84.7441 103.211 84.2747C98.8327 83.8187 94.7395 85.7854 92.8502 89.7463C91.8471 91.8438 91.4303 94.2544 90.9613 96.5734C87.7561 112.339 86.558 128.353 85.5678 144.379C85.1769 150.698 84.7465 157.032 84.1993 163.351C83.7172 169.019 83.0528 174.673 82.4665 180.328C82.4533 180.458 82.3494 180.588 82.2713 180.757C81.685 174.321 81.1379 167.963 80.5255 161.618C79.3268 149.084 78.0895 136.549 76.8778 124.015C76.3045 117.995 75.2212 112.092 73.0714 106.411C71.3252 101.786 67.0396 99.4156 62.3364 100.484C58.1284 101.448 56.0182 104.444 55.158 108.391C54.0505 113.498 52.9946 118.634 52.1738 123.793C50.5191 134.126 49.6716 144.537 49.1895 154.986C49.0983 157.031 48.8775 159.063 48.7212 161.108C47.9395 156.561 47.4444 152.014 46.9624 147.48C46.2197 140.483 45.5926 133.46 44.7196 126.476C44.1719 122.046 40.4984 118.972 36.0166 118.816C30.7138 118.621 27.0526 121.2 25.9321 125.838C24.4338 132.053 23.4562 138.359 22.7787 144.717C22.6093 146.345 22.3237 147.962 22.0892 149.59C20.4083 142.633 15.7169 140.353 9.08545 140.809C9.0203 140.34 8.9294 139.936 8.89032 139.532C8.65581 136.691 8.47187 133.851 8.17222 131.024C7.18452 121.856 4.55298 113.338 -1.17494e-05 105.591L0 0L463.447 5.1569e-05L463.447 208.672Z" fill="url(#paint8_radial_482_76)"/>
<defs>
<radialGradient id="paint0_radial_482_76" cx="0" cy="0" r="1" gradientUnits="userSpaceOnUse" gradientTransform="translate(615.424 -5498.88) rotate(89.746) scale(8712.14 141383)">
<stop offset="0.466346" stop-color="white"/>
<stop offset="1" stop-color="white"/>
</radialGradient>
<radialGradient id="paint1_radial_482_76" cx="0" cy="0" r="1" gradientUnits="userSpaceOnUse" gradientTransform="translate(615.424 -5498.88) rotate(89.746) scale(8712.14 141383)">
<stop offset="0.466346" stop-color="white"/>
<stop offset="1" stop-color="white"/>
</radialGradient>
<radialGradient id="paint2_radial_482_76" cx="0" cy="0" r="1" gradientUnits="userSpaceOnUse" gradientTransform="translate(615.424 -5498.88) rotate(89.746) scale(8712.14 141383)">
<stop offset="0.466346" stop-color="white"/>
<stop offset="1" stop-color="white"/>
</radialGradient>
<radialGradient id="paint3_radial_482_76" cx="0" cy="0" r="1" gradientUnits="userSpaceOnUse" gradientTransform="translate(615.424 -5498.88) rotate(89.746) scale(8712.14 141383)">
<stop offset="0.466346" stop-color="white"/>
<stop offset="1" stop-color="white"/>
</radialGradient>
<radialGradient id="paint4_radial_482_76" cx="0" cy="0" r="1" gradientUnits="userSpaceOnUse" gradientTransform="translate(615.424 -5498.88) rotate(89.746) scale(8712.14 141383)">
<stop offset="0.466346" stop-color="white"/>
<stop offset="1" stop-color="white"/>
</radialGradient>
<radialGradient id="paint5_radial_482_76" cx="0" cy="0" r="1" gradientUnits="userSpaceOnUse" gradientTransform="translate(615.424 -5498.88) rotate(89.746) scale(8712.14 141383)">
<stop offset="0.466346" stop-color="white"/>
<stop offset="1" stop-color="white"/>
</radialGradient>
<radialGradient id="paint6_radial_482_76" cx="0" cy="0" r="1" gradientUnits="userSpaceOnUse" gradientTransform="translate(615.424 -5498.88) rotate(89.746) scale(8712.14 141383)">
<stop offset="0.466346" stop-color="white"/>
<stop offset="1" stop-color="white"/>
</radialGradient>
<radialGradient id="paint7_radial_482_76" cx="0" cy="0" r="1" gradientUnits="userSpaceOnUse" gradientTransform="translate(615.424 -5498.88) rotate(89.746) scale(8712.14 141383)">
<stop offset="0.466346" stop-color="white"/>
<stop offset="1" stop-color="white"/>
</radialGradient>
<radialGradient id="paint8_radial_482_76" cx="0" cy="0" r="1" gradientUnits="userSpaceOnUse" gradientTransform="translate(615.424 -5498.88) rotate(89.746) scale(8712.14 141383)">
<stop offset="0.466346" stop-color="white"/>
<stop offset="1" stop-color="white"/>
</radialGradient>
</defs>
</svg>
